<mxfile host="app.diagrams.net" agent="Mozilla/5.0 (Windows NT 10.0; Win64; x64) AppleWebKit/537.36 (KHTML, like Gecko) Chrome/130.0.0.0 Safari/537.36" version="24.7.17">
  <diagram name="Page-1" id="1WPtYNUZ_LT2pc_o58g4">
    <mxGraphModel dx="1354" dy="739" grid="1" gridSize="10" guides="1" tooltips="1" connect="1" arrows="1" fold="1" page="1" pageScale="1" pageWidth="850" pageHeight="1100" math="0" shadow="0">
      <root>
        <mxCell id="0" />
        <mxCell id="1" parent="0" />
        <mxCell id="ElvQQ88xNIyNPAS1xPcG-1" value="Player" style="shape=umlActor;verticalLabelPosition=bottom;verticalAlign=top;html=1;outlineConnect=0;" vertex="1" parent="1">
          <mxGeometry x="90" y="230" width="60" height="110" as="geometry" />
        </mxCell>
        <mxCell id="ElvQQ88xNIyNPAS1xPcG-2" value="Save Changes" style="ellipse;whiteSpace=wrap;html=1;" vertex="1" parent="1">
          <mxGeometry x="260" y="400" width="120" height="80" as="geometry" />
        </mxCell>
        <mxCell id="ElvQQ88xNIyNPAS1xPcG-3" value="Cancel Changes" style="ellipse;whiteSpace=wrap;html=1;" vertex="1" parent="1">
          <mxGeometry x="460" y="400" width="120" height="80" as="geometry" />
        </mxCell>
        <mxCell id="ElvQQ88xNIyNPAS1xPcG-4" value="Adjust Height" style="ellipse;whiteSpace=wrap;html=1;" vertex="1" parent="1">
          <mxGeometry x="360" y="230" width="120" height="80" as="geometry" />
        </mxCell>
        <mxCell id="ElvQQ88xNIyNPAS1xPcG-5" value="Select Building" style="ellipse;whiteSpace=wrap;html=1;" vertex="1" parent="1">
          <mxGeometry x="360" y="80" width="120" height="80" as="geometry" />
        </mxCell>
        <mxCell id="ElvQQ88xNIyNPAS1xPcG-7" value="" style="endArrow=none;html=1;rounded=0;entryX=0;entryY=0.5;entryDx=0;entryDy=0;" edge="1" parent="1" target="ElvQQ88xNIyNPAS1xPcG-5">
          <mxGeometry width="50" height="50" relative="1" as="geometry">
            <mxPoint x="160" y="240" as="sourcePoint" />
            <mxPoint x="450" y="400" as="targetPoint" />
          </mxGeometry>
        </mxCell>
        <mxCell id="ElvQQ88xNIyNPAS1xPcG-8" value="" style="endArrow=none;html=1;rounded=0;entryX=0;entryY=0;entryDx=0;entryDy=0;" edge="1" parent="1" source="ElvQQ88xNIyNPAS1xPcG-1" target="ElvQQ88xNIyNPAS1xPcG-3">
          <mxGeometry width="50" height="50" relative="1" as="geometry">
            <mxPoint x="160" y="270" as="sourcePoint" />
            <mxPoint x="370" y="187" as="targetPoint" />
          </mxGeometry>
        </mxCell>
        <mxCell id="ElvQQ88xNIyNPAS1xPcG-9" value="" style="endArrow=none;html=1;rounded=0;entryX=0;entryY=0;entryDx=0;entryDy=0;" edge="1" parent="1" source="ElvQQ88xNIyNPAS1xPcG-1" target="ElvQQ88xNIyNPAS1xPcG-2">
          <mxGeometry width="50" height="50" relative="1" as="geometry">
            <mxPoint x="180" y="287" as="sourcePoint" />
            <mxPoint x="380" y="197" as="targetPoint" />
          </mxGeometry>
        </mxCell>
        <mxCell id="ElvQQ88xNIyNPAS1xPcG-10" value="" style="endArrow=none;html=1;rounded=0;entryX=0;entryY=0.5;entryDx=0;entryDy=0;" edge="1" parent="1" target="ElvQQ88xNIyNPAS1xPcG-4">
          <mxGeometry width="50" height="50" relative="1" as="geometry">
            <mxPoint x="160" y="267" as="sourcePoint" />
            <mxPoint x="390" y="207" as="targetPoint" />
          </mxGeometry>
        </mxCell>
        <mxCell id="ElvQQ88xNIyNPAS1xPcG-20" value="" style="endArrow=classic;html=1;rounded=0;exitX=0.5;exitY=0;exitDx=0;exitDy=0;entryX=0;entryY=1;entryDx=0;entryDy=0;" edge="1" parent="1" source="ElvQQ88xNIyNPAS1xPcG-2" target="ElvQQ88xNIyNPAS1xPcG-4">
          <mxGeometry width="50" height="50" relative="1" as="geometry">
            <mxPoint x="400" y="450" as="sourcePoint" />
            <mxPoint x="450" y="400" as="targetPoint" />
          </mxGeometry>
        </mxCell>
        <mxCell id="ElvQQ88xNIyNPAS1xPcG-22" value="Extend" style="edgeLabel;html=1;align=center;verticalAlign=middle;resizable=0;points=[];" vertex="1" connectable="0" parent="ElvQQ88xNIyNPAS1xPcG-20">
          <mxGeometry x="0.3945" relative="1" as="geometry">
            <mxPoint y="-1" as="offset" />
          </mxGeometry>
        </mxCell>
        <mxCell id="ElvQQ88xNIyNPAS1xPcG-21" value="" style="endArrow=classic;html=1;rounded=0;exitX=0.5;exitY=0;exitDx=0;exitDy=0;entryX=1;entryY=1;entryDx=0;entryDy=0;" edge="1" parent="1" source="ElvQQ88xNIyNPAS1xPcG-3" target="ElvQQ88xNIyNPAS1xPcG-4">
          <mxGeometry width="50" height="50" relative="1" as="geometry">
            <mxPoint x="410" y="460" as="sourcePoint" />
            <mxPoint x="460" y="410" as="targetPoint" />
          </mxGeometry>
        </mxCell>
        <mxCell id="ElvQQ88xNIyNPAS1xPcG-23" value="Extend" style="edgeLabel;html=1;align=center;verticalAlign=middle;resizable=0;points=[];" vertex="1" connectable="0" parent="ElvQQ88xNIyNPAS1xPcG-21">
          <mxGeometry x="0.2545" y="-2" relative="1" as="geometry">
            <mxPoint as="offset" />
          </mxGeometry>
        </mxCell>
        <mxCell id="ElvQQ88xNIyNPAS1xPcG-24" value="" style="endArrow=classic;html=1;rounded=0;entryX=0.5;entryY=1;entryDx=0;entryDy=0;exitX=0.5;exitY=0;exitDx=0;exitDy=0;" edge="1" parent="1" source="ElvQQ88xNIyNPAS1xPcG-4" target="ElvQQ88xNIyNPAS1xPcG-5">
          <mxGeometry width="50" height="50" relative="1" as="geometry">
            <mxPoint x="400" y="450" as="sourcePoint" />
            <mxPoint x="450" y="400" as="targetPoint" />
          </mxGeometry>
        </mxCell>
        <mxCell id="ElvQQ88xNIyNPAS1xPcG-25" value="Include" style="edgeLabel;html=1;align=center;verticalAlign=middle;resizable=0;points=[];" vertex="1" connectable="0" parent="ElvQQ88xNIyNPAS1xPcG-24">
          <mxGeometry relative="1" as="geometry">
            <mxPoint as="offset" />
          </mxGeometry>
        </mxCell>
        <mxCell id="ElvQQ88xNIyNPAS1xPcG-26" value="" style="swimlane;startSize=0;" vertex="1" parent="1">
          <mxGeometry x="230" y="10" width="370" height="570" as="geometry" />
        </mxCell>
        <mxCell id="ElvQQ88xNIyNPAS1xPcG-27" value="Adjust Building Height" style="text;html=1;align=center;verticalAlign=middle;resizable=0;points=[];autosize=1;strokeColor=none;fillColor=none;" vertex="1" parent="ElvQQ88xNIyNPAS1xPcG-26">
          <mxGeometry x="120" y="10" width="140" height="30" as="geometry" />
        </mxCell>
      </root>
    </mxGraphModel>
  </diagram>
</mxfile>
